<svg width="800" height="600" xmlns="http://www.w3.org/2000/svg">

 <g>
  <title>Layer 1</title>
  <g>
   <g fill="#000000" transform="translate(0 512) scale(0.1 -0.1)">
    <path fill="#5eead5" d="m3231.81519,3666.61771c-24,-13 -57,-43 -74,-66c-27,-39 -30,-50 -30,-120c0,-68 3,-82 27,-117c15,-21 44,-50 65,-64l37,-25l740,-3l740,-2l-1116,-1118c-909,-910 -1118,-1124 -1128,-1156c-30,-95 5,-201 86,-255c43,-30 133,-39 190,-21c32,10 246,219 1156,1128l1118,1116l2,-740l3,-740l25,-37c14,-21 43,-50 64,-65c35,-24 49,-27 116,-27c67,0 81,3 116,27c21,15 50,44 64,65l25,37l0,1036l0,1037l-27,39c-15,21 -44,50 -65,64l-37,25l-1026,3l-1026,2l-45,-23z"/>
   </g>
  </g>
 </g>
</svg>